# xmcd CD database file
#
# Track frame offsets:
#	150
#	27587
#	46900
#	63552
#	66625
#	90560
#	117237
#	137117
#	165772
#	181250
#	204935
#	230395
#	254550
#
# Disc length: 3593 seconds
#
# Revision: 13
# Processed by: cddbd v1.5.2PL0 Copyright (c) Steve Scherf et al.
# Submitted via: CDex 1.51
#
DISCID=b40e070d
DTITLE=Dave Koz - Lucky Man
DYEAR=1993
DGENRE=Jazz
TTITLE0=Shakin' The Shack
TTITLE1=You Make Me Smile
TTITLE2=Faces of the Heart
TTITLE3=Don't Look Any Further - Prelude
TTITLE4=Don't Look Any Further
TTITLE5=Tender is the Night
TTITLE6=Saxman
TTITLE7=After Dark
TTITLE8=Lucky Man
TTITLE9=Silverlining
TTITLE10=Wait a Little While
TTITLE11=Show Me the Way
TTITLE12=Misty
EXTD=YEAR: 1993
EXTT0=
EXTT1=
EXTT2=
EXTT3=
EXTT4=
EXTT5=
EXTT6=
EXTT7=
EXTT8=
EXTT9=
EXTT10=
EXTT11=
EXTT12=
PLAYORDER=
